<svg id="Layer_5_copy" data-name="Layer 5 copy" xmlns="http://www.w3.org/2000/svg" xmlns:xlink="http://www.w3.org/1999/xlink" viewBox="0 0 1195.88 1157.13"><defs><style>.cls-1{fill:url(#linear-gradient);}.cls-2{fill:#fff;}</style><linearGradient id="linear-gradient" x1="894.19" y1="1545.45" x2="2090.07" y2="1545.45" gradientUnits="userSpaceOnUse"><stop offset="0" stop-color="#ea5c6e"/><stop offset="0.63" stop-color="#f3966f"/><stop offset="1" stop-color="#f8b36f"/></linearGradient></defs><title>100 logo</title><path class="cls-1" d="M894.19,1773.3l140.69.9L974.78,2124l502.16-355.37,504.32-5.1L2030.32,1478l-21.59.2c36-49.54,60.65-111.19,73.47-183.83a473.48,473.48,0,0,0,7.87-85.47c0-71.07-19.32-129.09-57.42-172.47-21.22-24.14-48.13-42.3-80-54-28.25-10.36-60.76-15.61-96.64-15.61-42.8,0-82.38,7.29-117.63,21.68a262,262,0,0,0-93,64.27,208.65,208.65,0,0,0-13-16.37c-21.21-24.14-48.12-42.3-80-54-28.25-10.36-60.76-15.61-96.65-15.61-42.79,0-82.37,7.29-117.62,21.68q-9.63,3.91-18.83,8.57l3.89-22.24H962.34L915,1248.52h70.57Z" transform="translate(-894.19 -966.89)"/><path class="cls-2" d="M1004.09,1173.52l21.39-123.62H1234L1151.1,1523H1013.45l61.47-349.47Z" transform="translate(-894.19 -966.89)"/><path class="cls-2" d="M1219.92,1281.1q19.38-110.25,77.85-174.73t158-64.48q81.51,0,120.27,44.1t38.76,123a395.91,395.91,0,0,1-6.69,72.16q-19.38,110.25-78.17,175.07T1371.6,1521q-81.52,0-119.94-43.76t-38.42-122.62A417.15,417.15,0,0,1,1219.92,1281.1Zm258.59,0q6-34.74,6-54.12,0-29.4-11.36-45.11t-38.76-15.7q-39.44,0-57.46,29.74t-28.07,85.19q-6,36.09-6,54.79,0,29.41,11.69,45.11t39.09,15.7q38.74,0,56.8-29.74T1478.51,1281.1Z" transform="translate(-894.19 -966.89)"/><path class="cls-2" d="M1620.16,1281.1q19.38-110.25,77.85-174.73t158-64.48q81.51,0,120.27,44.1t38.76,123a396.78,396.78,0,0,1-6.68,72.16q-19.4,110.25-78.18,175.07T1771.84,1521q-81.52,0-119.94-43.76t-38.42-122.62A418.1,418.1,0,0,1,1620.16,1281.1Zm258.6,0q6-34.74,6-54.12,0-29.4-11.36-45.11t-38.75-15.7q-39.44,0-57.47,29.74t-28.06,85.19q-6,36.09-6,54.79,0,29.41,11.7,45.11t39.09,15.7q38.74,0,56.79-29.74T1878.76,1281.1Z" transform="translate(-894.19 -966.89)"/><polygon class="cls-2" points="1047 587 541.68 591.76 356.32 725.22 378.34 597.07 112.2 596.32 88.89 731.98 229.58 732.88 185.19 991.23 558.56 727 1023.75 722.3 1047 587"/></svg>